<svg xmlns="http://www.w3.org/2000/svg" xmlns:xlink="http://www.w3.org/1999/xlink" width="1066.26" height="1164.472" viewBox="0 0 1066.26 1164.472"><defs><clipPath id="a"><rect width="614.26" height="696.097" fill="#afb3f5"/></clipPath></defs><g transform="translate(-1019 -2501.625)" opacity="0.752"><g transform="translate(1471 2501.625)"><g clip-path="url(#a)"><path d="M304.666,117.523l53.76-53.832-2.2-2.2L301.6,116.2l-1.267,39.749L232.2,224.164l.025,35.9a9.715,9.715,0,1,0,3.109.18l-.024-34.8,68.087-68.18ZM237.879,265.042a6.572,6.572,0,1,1-4.641-1.92,6.578,6.578,0,0,1,4.641,1.92" transform="translate(127.327 35.023)" fill="#afb3f5"/><path d="M340,166.786l-68.129,68.225.024,36.627-54.382,54.454a9.761,9.761,0,1,0,2.452,1.945l55.041-55.113-.025-36.627,68.087-68.183,1.263-39.746,53.76-53.834-2.2-2.2-54.628,54.7ZM217.484,339.2a6.569,6.569,0,1,1,1.92-4.644,6.521,6.521,0,0,1-1.92,4.644" transform="translate(115.71 41.2)" fill="#afb3f5"/><path d="M195.634,207.58a5.666,5.666,0,1,0,.91,2.979l30.845-11.773,66.944-67.035a5.634,5.634,0,1,0-2.2-2.2L225.66,196.117Z" transform="translate(105.528 69.031)" fill="#afb3f5"/><path d="M94.939,269.371a9.706,9.706,0,0,0,8.956-5.993l34.665,7.9,77.945-78.049,31.79,7.887L447.94,2.2,445.748,0,247.341,197.674l-31.794-7.889-77.974,78.077-32.987-7.515c.016-.22.033-.438.033-.661a9.679,9.679,0,1,0-9.679,9.684M90.293,255.05a6.567,6.567,0,1,1-1.923,4.647,6.516,6.516,0,0,1,1.923-4.647" transform="translate(48.563)" fill="#afb3f5"/><path d="M146.029,168.535a5.617,5.617,0,0,0,.923-6.7l38.17-38.223,34.511,7.008L262,88.195a5.637,5.637,0,1,0-2.2-2.2l-41.191,41.243L184.1,120.235l-39.352,39.4a5.625,5.625,0,1,0,1.278,8.9" transform="translate(77.69 44.224)" fill="#afb3f5"/><path d="M265.49,283.358a9.672,9.672,0,1,0-1.1-14.613,9.688,9.688,0,0,0-1.072,12.387l-22.435,22.437,2.2,16.121L125.775,437l2.2,2.2,118.4-118.4-2.2-16.124Zm1.1-12.415a6.569,6.569,0,1,1,0,9.29,6.52,6.52,0,0,1,0-9.29" transform="translate(71.635 151.447)" fill="#afb3f5"/><path d="M0,463.543l2.2,2.2L39.939,428l0-15.573,55.879-55.879V342.258L117.9,320.174,131.458,322l89.292-89.288a9.729,9.729,0,1,0-2.285-2.113L130.35,318.719l-13.558-1.832L92.707,340.971v14.291L36.828,411.14l0,15.573ZM221.427,219.99a6.57,6.57,0,1,1-1.921,4.646,6.524,6.524,0,0,1,1.921-4.646" transform="translate(0 122.426)" fill="#afb3f5"/><path d="M193.015,225.368l2.383-24.733L208.937,187.1l26.565-4.214,18-18a9.746,9.746,0,1,0-2.254-2.142l-17.23,17.23-26.565,4.216L192.41,199.225l-2.383,24.733L21.867,392.12l2.2,2.2Zm61.272-73.138a6.586,6.586,0,1,1,.775,9.923l-1.414-1.413a6.527,6.527,0,0,1,.639-8.51" transform="translate(12.454 83.834)" fill="#afb3f5"/><path d="M95.523,372.057,147,320.578l-2.2-16.121,20.765-20.762a5.636,5.636,0,1,0-2.215-2.183l-21.839,21.837,2.2,16.121L93.324,369.858Z" transform="translate(53.153 155.559)" fill="#afb3f5"/><path d="M233.4,344.505l35.987-35.988a5.648,5.648,0,1,0-2.128-2.268L232.116,341.4H216.541l-55.876,55.879H146.373L122.288,421.36l1.832,13.558L34.891,524.147l2.2,2.2,89.775-89.772.546-.545-1.833-13.559,22.084-22.084h14.292l55.878-55.879Z" transform="translate(19.872 169.753)" fill="#afb3f5"/><path d="M366.769,222.082H352.48L296.6,277.961H281.028L245.04,313.949a5.655,5.655,0,1,0,2.127,2.27l35.148-35.148h15.573l55.879-55.879h14.289l24.083-24.085-1.83-13.558L479.537,98.32l-2.2-2.2-90.318,90.318L388.854,200Z" transform="translate(134.724 54.746)" fill="#afb3f5"/></g></g><g transform="translate(1019 2970)" opacity="0.864"><g clip-path="url(#a)"><path d="M304.666,117.523l53.76-53.832-2.2-2.2L301.6,116.2l-1.267,39.749L232.2,224.164l.025,35.9a9.715,9.715,0,1,0,3.109.18l-.024-34.8,68.087-68.18ZM237.879,265.042a6.572,6.572,0,1,1-4.641-1.92,6.578,6.578,0,0,1,4.641,1.92" transform="translate(127.327 35.023)" fill="#afb3f5"/><path d="M340,166.786l-68.129,68.225.024,36.627-54.382,54.454a9.761,9.761,0,1,0,2.452,1.945l55.041-55.113-.025-36.627,68.087-68.183,1.263-39.746,53.76-53.834-2.2-2.2-54.628,54.7ZM217.484,339.2a6.569,6.569,0,1,1,1.92-4.644,6.521,6.521,0,0,1-1.92,4.644" transform="translate(115.71 41.2)" fill="#afb3f5"/><path d="M195.634,207.58a5.666,5.666,0,1,0,.91,2.979l30.845-11.773,66.944-67.035a5.634,5.634,0,1,0-2.2-2.2L225.66,196.117Z" transform="translate(105.528 69.031)" fill="#afb3f5"/><path d="M94.939,269.371a9.706,9.706,0,0,0,8.956-5.993l34.665,7.9,77.945-78.049,31.79,7.887L447.94,2.2,445.748,0,247.341,197.674l-31.794-7.889-77.974,78.077-32.987-7.515c.016-.22.033-.438.033-.661a9.679,9.679,0,1,0-9.679,9.684M90.293,255.05a6.567,6.567,0,1,1-1.923,4.647,6.516,6.516,0,0,1,1.923-4.647" transform="translate(48.563)" fill="#afb3f5"/><path d="M146.029,168.535a5.617,5.617,0,0,0,.923-6.7l38.17-38.223,34.511,7.008L262,88.195a5.637,5.637,0,1,0-2.2-2.2l-41.191,41.243L184.1,120.235l-39.352,39.4a5.625,5.625,0,1,0,1.278,8.9" transform="translate(77.69 44.224)" fill="#afb3f5"/><path d="M265.49,283.358a9.672,9.672,0,1,0-1.1-14.613,9.688,9.688,0,0,0-1.072,12.387l-22.435,22.437,2.2,16.121L125.775,437l2.2,2.2,118.4-118.4-2.2-16.124Zm1.1-12.415a6.569,6.569,0,1,1,0,9.29,6.52,6.52,0,0,1,0-9.29" transform="translate(71.635 151.447)" fill="#afb3f5"/><path d="M0,463.543l2.2,2.2L39.939,428l0-15.573,55.879-55.879V342.258L117.9,320.174,131.458,322l89.292-89.288a9.729,9.729,0,1,0-2.285-2.113L130.35,318.719l-13.558-1.832L92.707,340.971v14.291L36.828,411.14l0,15.573ZM221.427,219.99a6.57,6.57,0,1,1-1.921,4.646,6.524,6.524,0,0,1,1.921-4.646" transform="translate(0 122.426)" fill="#afb3f5"/><path d="M193.015,225.368l2.383-24.733L208.937,187.1l26.565-4.214,18-18a9.746,9.746,0,1,0-2.254-2.142l-17.23,17.23-26.565,4.216L192.41,199.225l-2.383,24.733L21.867,392.12l2.2,2.2Zm61.272-73.138a6.586,6.586,0,1,1,.775,9.923l-1.414-1.413a6.527,6.527,0,0,1,.639-8.51" transform="translate(12.454 83.834)" fill="#afb3f5"/><path d="M95.523,372.057,147,320.578l-2.2-16.121,20.765-20.762a5.636,5.636,0,1,0-2.215-2.183l-21.839,21.837,2.2,16.121L93.324,369.858Z" transform="translate(53.153 155.559)" fill="#afb3f5"/><path d="M233.4,344.505l35.987-35.988a5.648,5.648,0,1,0-2.128-2.268L232.116,341.4H216.541l-55.876,55.879H146.373L122.288,421.36l1.832,13.558L34.891,524.147l2.2,2.2,89.775-89.772.546-.545-1.833-13.559,22.084-22.084h14.292l55.878-55.879Z" transform="translate(19.872 169.753)" fill="#afb3f5"/><path d="M366.769,222.082H352.48L296.6,277.961H281.028L245.04,313.949a5.655,5.655,0,1,0,2.127,2.27l35.148-35.148h15.573l55.879-55.879h14.289l24.083-24.085-1.83-13.558L479.537,98.32l-2.2-2.2-90.318,90.318L388.854,200Z" transform="translate(134.724 54.746)" fill="#afb3f5"/></g></g></g></svg>